#!OML:ASF F:\VICON\USERDATA\INSTALL\rory3\rory3.ASF
:FULLY-SPECIFIED
:DEGREES
3577
root -1.04395 17.8653 0.684742 4.42397 14.3404 -2.72549
lowerback 6.5842 0.9757 -2.01425
upperback 0.671243 1.09213 -2.02654
thorax -2.99712 0.558775 -1.05834
lowerneck -29.1039 -5.34573 -12.9661
upperneck 2.15065 -3.82835 13.0234
head 5.68228 -0.900517 5.93379
rclavicle -2.34566e-014 3.97569e-015
rhumerus -21.1404 21.0474 -59.8303
rradius 99.7691
rwrist 37.7118
rhand -53.9921 -0.68187
rfingers 7.12502
rthumb -26.4157 -28.8614
lclavicle -2.34566e-014 3.97569e-015
lhumerus 76.2583 -56.8156 38.4357
lradius 41.2221
lwrist -28.4284
lhand -28.1794 41.8985
lfingers 7.12502
lthumb -1.55919 -288.127
rfemur -13.7773 -4.26974 18.868
rtibia 28.1906
rfoot -18.1496 -11.4859
rtoes -1.97616
lfemur -14.151 -2.38924 -9.28401
ltibia 23.143
lfoot -8.73395 11.1562
ltoes -20.4737
3578
root -1.05255 17.865 0.686112 4.45767 13.746 -2.49686
lowerback 6.64447 0.951305 -1.96861
upperback 0.677505 1.06316 -1.95017
thorax -3.02504 0.544148 -1.00353
lowerneck -29.4472 -5.05301 -12.8166
upperneck 2.21321 -3.43997 12.8833
head 5.69028 -0.711445 5.91765
rclavicle -1.2921e-014 -4.77083e-015
rhumerus -22.8101 20.7425 -62.1822
rradius 98.607
rwrist 38.3776
rhand -54.0671 0.0481543
rfingers 7.12502
rthumb -26.4876 -28.1205
lclavicle -1.2921e-014 -4.77083e-015
lhumerus 76.2583 -56.8156 38.4357
lradius 41.2221
lwrist -28.4284
lhand -28.1794 41.8985
lfingers 7.12502
lthumb -1.55919 -288.127
rfemur -13.9231 -4.09885 18.6291
rtibia 28.3268
rfoot -17.9712 -11.1904
rtoes -2.15556
lfemur -13.8581 -2.49669 -9.51574
ltibia 23.0012
lfoot -8.73504 11.8038
ltoes -20.4558
3579
root -1.06753 17.8672 0.67614 4.59896 13.3934 -2.34178
lowerback 6.63522 0.830411 -2.05697
upperback 0.713631 0.906119 -1.64761
thorax -2.98904 0.468189 -0.626651
lowerneck -29.9624 -4.75767 -12.7784
upperneck 2.44576 -2.98445 12.5926
head 5.76323 -0.500269 5.88007
rclavicle -2.44505e-014 -2.46493e-014
rhumerus -24.1023 20.2832 -64.0612
rradius 97.3346
rwrist 39.2462
rhand -53.964 -0.272082
rfingers 7.12502
rthumb -26.3889 -28.4556
lclavicle -2.44505e-014 -2.46493e-014
lhumerus 76.2583 -56.8156 38.4357
lradius 41.2221
lwrist -28.4284
lhand -28.1794 41.8985
lfingers 7.12502
lthumb -1.55919 -288.127
rfemur -14.2046 -3.93335 18.5081
rtibia 28.4701
rfoot -17.8779 -11.0716
rtoes -2.33825
lfemur -13.818 -2.61655 -9.63831
ltibia 22.8279
lfoot -8.61677 12.2223
ltoes -20.4583
3580
root -1.08404 17.8666 0.669465 4.59982 13 -2.38735
lowerback 6.69192 0.721376 -2.12128
upperback 0.734637 0.769264 -1.17392
thorax -3.00561 0.403038 -0.0900496
lowerneck -30.2652 -4.40455 -12.8165
upperneck 2.67029 -2.44914 12.2808
head 5.79636 -0.262461 5.856
rclavicle 3.26007e-014 -2.3059e-014
rhumerus -25.4133 19.7338 -65.6891
rradius 96.1975
rwrist 39.4577
rhand -53.6361 0.379787
rfingers 7.12502
rthumb -26.0749 -27.8504
lclavicle 3.26007e-014 -2.3059e-014
lhumerus 76.2583 -56.8156 38.4357
lradius 41.2221
lwrist -28.4284
lhand -28.1794 41.8985
lfingers 7.12502
lthumb -1.55919 -288.127
rfemur -14.3642 -3.72373 18.6007
rtibia 28.5896
rfoot -17.8269 -10.9489
rtoes -2.3789
lfemur -13.6465 -2.62871 -9.53445
ltibia 22.6507
lfoot -8.55685 12.5421
ltoes -19.8918
3581
root -1.09677 17.8658 0.6689 4.62528 12.5265 -2.22901
lowerback 6.60647 0.689695 -2.26618
upperback 0.811243 0.730078 -0.869492
thorax -2.88386 0.385278 0.310405
lowerneck -30.2651 -4.0014 -12.6619
upperneck 2.59078 -1.9288 11.9282
head 5.69175 -0.0399328 5.77586
rclavicle 3.32964e-014 -7.15625e-015
rhumerus -26.6181 18.8808 -67.2325
rradius 94.9508
rwrist 39.4197
rhand -52.9407 1.40294
rfingers 7.12502
rthumb -25.4089 -26.9238
lclavicle 3.32964e-014 -7.15625e-015
lhumerus 76.2583 -56.8156 38.4357
lradius 41.2221
lwrist -28.4284
lhand -28.1794 41.8985
lfingers 7.12502
lthumb -1.55919 -288.127
rfemur -14.4966 -3.58044 18.4545
rtibia 28.7109
rfoot -17.711 -10.6857
rtoes -2.46528
lfemur -13.4191 -2.699 -9.66793
ltibia 22.5058
lfoot -8.52943 13.0191
ltoes -19.3836
3582
root -1.10758 17.8674 0.670083 4.62397 11.977 -2.10089
lowerback 6.51723 0.665487 -2.37389
upperback 0.88471 0.70431 -0.530836
thorax -2.76305 0.373457 0.723725
lowerneck -30.0454 -3.58656 -12.4828
upperneck 2.31474 -1.40254 11.441
head 5.49242 0.169814 5.63868
rclavicle 1.59028e-015 -1.66979e-014
rhumerus -27.7206 18.0006 -68.562
rradius 93.5884
rwrist 39.343
rhand -52.306 2.12515
rfingers 7.12502
rthumb -24.8008 -26.2867
lclavicle 1.59028e-015 -1.66979e-014
lhumerus 76.2583 -56.8156 38.4357
lradius 41.2221
lwrist -28.4284
lhand -28.1794 41.8985
lfingers 7.12502
lthumb -1.55919 -288.127
rfemur -14.6065 -3.39366 18.3275
rtibia 28.8148
rfoot -17.5662 -10.3577
rtoes -2.43912
lfemur -13.142 -2.70582 -9.78955
ltibia 22.3669
lfoot -8.48965 13.5396
ltoes -19.0219
3583
root -1.11783 17.8654 0.670629 4.5663 11.2749 -2.02318
lowerback 6.52573 0.710464 -2.42381
upperback 0.92851 0.770608 -0.199753
thorax -2.72979 0.407555 1.08731
lowerneck -29.945 -3.24757 -12.4183
upperneck 2.22525 -0.957805 11.1599
head 5.38871 0.358982 5.58425
rclavicle -2.48481e-014 2.26615e-014
rhumerus -28.9102 16.9736 -69.7434
rradius 92.4486
rwrist 38.8867
rhand -51.8171 2.82539
rfingers 7.12502
rthumb -24.3322 -25.6501
lclavicle -2.48481e-014 2.26615e-014
lhumerus 76.2583 -56.8156 38.4357
lradius 41.2221
lwrist -28.4284
lhand -28.1794 41.8985
lfingers 7.12502
lthumb -1.55919 -288.127
rfemur -14.7075 -3.12749 18.2436
rtibia 28.9201
rfoot -17.4219 -9.96814
rtoes -2.44046
lfemur -12.7757 -2.56513 -9.88457
ltibia 22.2095
lfoot -8.44219 14.0693
ltoes -19.0611
